<?xml version="1.0" standalone="no"?><!DOCTYPE svg PUBLIC "-//W3C//DTD SVG 1.1//EN" "http://www.w3.org/Graphics/SVG/1.1/DTD/svg11.dtd"><svg t="1639014376039" class="icon" viewBox="0 0 1024 1024" version="1.1" xmlns="http://www.w3.org/2000/svg" p-id="1870" xmlns:xlink="http://www.w3.org/1999/xlink" width="200" height="200"><defs><style type="text/css"></style></defs><path d="M748.586667 286.933333c0 19.2-15.573333 34.773333-34.773334 34.773334H296.618667a34.773333 34.773333 0 1 1 0-69.546667h417.194666c19.2 0 34.773333 15.573333 34.773334 34.773333m0 208.64c0 19.157333-15.573333 34.730667-34.773334 34.730667H296.618667a34.773333 34.773333 0 1 1 0-69.546667h417.194666c19.2 0 34.773333 15.573333 34.773334 34.773334m-229.461334 208.597333c0 19.2-15.530667 34.773333-34.773333 34.773333h-187.733333a34.773333 34.773333 0 1 1 0-69.546666h187.733333c19.2 0 34.773333 15.573333 34.773333 34.773333M811.221333 42.666667H195.754667A110.506667 110.506667 0 0 0 85.333333 153.045333v717.866667A110.506667 110.506667 0 0 0 195.754667 981.333333h458.88c14.250667 0 28.16-5.034667 39.125333-14.165333l210.304-193.152c11.178667-10.112 17.578667-24.533333 17.578667-39.637333V153.088A110.506667 110.506667 0 0 0 811.221333 42.666667" p-id="1871"></path></svg>