<?xml version="1.0" standalone="no"?><!DOCTYPE svg PUBLIC "-//W3C//DTD SVG 1.1//EN" "http://www.w3.org/Graphics/SVG/1.1/DTD/svg11.dtd"><svg t="1638261548836" class="icon" viewBox="0 0 1024 1024" version="1.1" xmlns="http://www.w3.org/2000/svg" p-id="38022" xmlns:xlink="http://www.w3.org/1999/xlink" width="200" height="200"><defs><style type="text/css"></style></defs><path d="M200.21248 432.25088a53.78048 53.78048 0 0 0 38.42048 15.9744c14.49984 0 28.13952-5.69344 38.37952-15.9744l180.75648-181.73952L457.76896 969.76896C457.76896 999.6288 482.0992 1024 512 1024c29.9008 0 54.272-24.33024 54.272-54.272l0-719.21664 180.71552 181.73952a53.78048 53.78048 0 0 0 38.42048 15.9744c14.49984 0 28.13952-5.69344 38.42048-15.9744a54.72256 54.72256 0 0 0 0-77.0048l-273.24416-274.71872a54.72256 54.72256 0 0 0-12.41088-9.4208l-0.32768-0.2048c-3.072-1.6384-6.26688-2.99008-9.58464-4.05504l-0.16384 0c-1.51552-0.49152-3.03104-0.90112-4.58752-1.2288l-0.65536-0.16384c-1.4336-0.28672-2.90816-0.49152-4.38272-0.65536l-0.98304-0.16384a56.19712 56.19712 0 0 0-10.97728 0l-0.98304 0.16384c-1.47456 0.16384-2.94912 0.4096-4.42368 0.65536l-0.65536 0.16384a53.57568 53.57568 0 0 0-9.54368 3.03104l-0.04096 0c-1.6384 0.69632-3.15392 1.4336-4.7104 2.2528l-0.57344 0.36864a53.08416 53.08416 0 0 0-12.20608 9.29792l-273.2032 274.67776a54.72256 54.72256 0 0 0 0 77.0048" p-id="38023"></path></svg>