<?xml version="1.0" standalone="no"?><!DOCTYPE svg PUBLIC "-//W3C//DTD SVG 1.1//EN" "http://www.w3.org/Graphics/SVG/1.1/DTD/svg11.dtd"><svg t="1639014370979" class="icon" viewBox="0 0 1035 1024" version="1.1" xmlns="http://www.w3.org/2000/svg" p-id="1583" xmlns:xlink="http://www.w3.org/1999/xlink" width="202.1484375" height="200"><defs><style type="text/css"></style></defs><path d="M507.462995 9.03141c-9.116612 0-18.233224 2.385655-26.370013 7.156966L39.661522 274.307776c-15.762366 9.201814-25.560594 26.327412-25.560594 44.603236 0 18.318426 9.798228 35.358822 25.560594 44.603237l441.43146 258.119399a52.186213 52.186213 0 0 0 52.740025 0l441.43146-258.162c15.762366-9.201814 25.603195-26.284811 25.603195-44.560636 0-18.318426-9.798228-35.358822-25.560594-44.603236L533.790406 16.145775a52.271415 52.271415 0 0 0-26.370012-7.114365z" p-id="1584"></path><path d="M500.902442 82.390315z" p-id="1585"></path><path d="M958.820485 488.207347L507.462995 752.120481 56.148105 488.207347a37.318467 37.318467 0 0 0-37.659275 64.412697l462.646753 270.516287a52.186213 52.186213 0 0 0 52.740025 0l462.646753-270.516287a37.318467 37.318467 0 1 0-18.872238-69.524816 37.105462 37.105462 0 0 0-18.829638 5.112119" p-id="1586"></path><path d="M958.820485 674.757083L507.462995 938.670217 56.148105 674.757083a37.318467 37.318467 0 0 0-37.659275 64.412697l462.646753 270.516287a52.186213 52.186213 0 0 0 52.740025 0l462.646753-270.516287a37.275866 37.275866 0 1 0-18.872238-69.524816 37.105462 37.105462 0 0 0-18.829638 5.112119" p-id="1587"></path></svg>