<?xml version="1.0" encoding="UTF-8"?>
<svg width="24px" height="24px" viewBox="0 0 24 24" version="1.1" xmlns="http://www.w3.org/2000/svg" xmlns:xlink="http://www.w3.org/1999/xlink">
    <defs>
        <polygon id="path-1" points="1.62962963e-05 0 19.5601185 0 19.5601185 21.9999348 1.62962963e-05 21.9999348"></polygon>
    </defs>
    <g stroke="none" stroke-width="1" fill="none" fill-rule="evenodd">
        <g transform="translate(-1031.000000, -125.000000)">
            <rect fill="#F8F8FD" x="0" y="0" width="1440" height="900"></rect>
            <rect fill="#FFFFFF" x="826" y="81" width="281" height="112" rx="5"></rect>
            <circle fill="#FFF3E8" cx="1043" cy="137" r="28"></circle>
            <g transform="translate(1031.000000, 125.000000)">
                <g transform="translate(2.000000, 1.000000)">
                    <mask id="mask-2" fill="white">
                        <use xlink:href="#path-1"></use>
                    </mask>
                    <g id="Clip-2"></g>
                    <path d="M13.0393348,9.31180148 L10.5948904,9.31180148 L10.5948904,11.7562459 C10.5948904,12.2061867 10.2300163,12.5710607 9.78007556,12.5710607 C9.33013481,12.5710607 8.96526074,12.2061867 8.96526074,11.7562459 L8.96526074,9.31180148 L6.5208163,9.31180148 C6.07087556,9.31180148 5.70600148,8.94692741 5.70600148,8.49698667 C5.70600148,8.04704593 6.07087556,7.68217185 6.5208163,7.68217185 L8.96526074,7.68217185 L8.96526074,5.23772741 C8.96526074,4.78778667 9.33013481,4.42291259 9.78007556,4.42291259 C10.2300163,4.42291259 10.5948904,4.78778667 10.5948904,5.23772741 L10.5948904,7.68217185 L13.0393348,7.68217185 C13.4892756,7.68217185 13.8541496,8.04704593 13.8541496,8.49698667 C13.8541496,8.94692741 13.4892756,9.31180148 13.0393348,9.31180148 M17.3927274,-6.51851852e-05 L2.1674237,-6.51851852e-05 C0.972253333,-6.51851852e-05 1.62962963e-05,0.972334815 1.62962963e-05,2.16750519 L1.62962963e-05,20.5919348 C1.62962963e-05,21.0803348 0.247394074,21.5265274 0.661645926,21.7851496 C0.89012,21.9279052 1.14743852,21.9999348 1.40606074,21.9999348 C1.61628296,21.9999348 1.82764593,21.9521867 2.02466815,21.8558756 L9.94108296,17.9872978 C10.1219719,17.8988089 10.3352904,17.9038607 10.5117793,18.0003348 L17.4784459,21.8089422 L17.4784459,21.8091052 C17.9187719,22.0494756 18.4392756,22.0405126 18.8708015,21.7846607 C19.3024904,21.5288089 19.5601348,21.0762607 19.5601348,20.5744978 L19.5601348,2.16750519 C19.5601348,0.972334815 18.5878978,-6.51851852e-05 17.3927274,-6.51851852e-05" id="Fill-1" fill="#F7862A" mask="url(#mask-2)"></path>
                </g>
            </g>
        </g>
    </g>
</svg>
