<?xml version="1.0" standalone="no"?><!DOCTYPE svg PUBLIC "-//W3C//DTD SVG 1.1//EN" "http://www.w3.org/Graphics/SVG/1.1/DTD/svg11.dtd"><svg t="1628498228037" class="icon" viewBox="0 0 1024 1024" version="1.1" xmlns="http://www.w3.org/2000/svg" p-id="2411" xmlns:xlink="http://www.w3.org/1999/xlink" width="200" height="200"><defs><style type="text/css"></style></defs><path d="M838.845957 816.826895H184.130049C82.626684 816.826895 0.0032 736.251398 0.0032 637.116018V180.606871C0.0032 81.53549 82.562684 1.023994 184.130049 1.023994h654.715908c101.567365 0 184.126849 80.511497 184.126849 179.582877v456.509147c0 99.19938-82.559484 179.710877-184.126849 179.710877zM184.130049 94.271411c-48.831695 0-88.639446 38.719758-88.639446 86.527459v456.509147c0.639996 48.319698 40.319748 87.039456 88.639446 86.527459h654.715908c48.831695 0 88.639446-38.783758 88.639446-86.527459V180.606871a87.807451 87.807451 0 0 0-88.639446-86.527459H184.130049v0.191999zM975.229105 1023.9936H47.746902a47.039706 47.039706 0 0 1-47.679702-46.527709c0-25.66384 21.311867-46.46371 47.743701-46.46371h927.354204c26.431835 0 47.743702 20.79987 47.743702 46.46371a46.975706 46.975706 0 0 1-47.743702 46.527709h0.064z" fill="#0ACD8C" p-id="2412"></path><path d="M543.871801 576.444397a41.151743 41.151743 0 0 1-31.423804-15.423903L410.880632 439.613252 331.521128 534.39666a39.487753 39.487753 0 0 1-62.719608 0 60.543622 60.543622 0 0 1 0-74.879532l110.847307-132.223174a39.487753 39.487753 0 0 1 62.719608 0L543.871801 448.637196l147.839076-176.446897a39.487753 39.487753 0 0 1 62.719608 0c17.215892 21.951863 17.215892 52.927669 0 74.879532l-179.19888 213.886663c-7.679952 9.53594-19.19988 15.167905-31.423804 15.359904h0.064z" fill="#0ACD8C" p-id="2413"></path></svg>