<?xml version="1.0" standalone="no"?><!DOCTYPE svg PUBLIC "-//W3C//DTD SVG 1.1//EN" "http://www.w3.org/Graphics/SVG/1.1/DTD/svg11.dtd"><svg t="1628498220003" class="icon" viewBox="0 0 1024 1024" version="1.1" xmlns="http://www.w3.org/2000/svg" p-id="1975" xmlns:xlink="http://www.w3.org/1999/xlink" width="200" height="200"><defs><style type="text/css"></style></defs><path d="M140.672 75.84c-35.776 0-64.832 29.248-64.832 65.28v741.76c0 36.032 29.056 65.28 64.832 65.28h652.16c35.648 0 64.768-29.248 64.768-65.28V141.12c0-36.032-29.12-65.28-64.832-65.28H140.608zM792.832 1024H140.608A141.056 141.056 0 0 1 0 882.88V141.12C0 63.296 63.104 0 140.672 0h652.16c77.44 0 140.608 63.296 140.608 141.12v741.76A141.056 141.056 0 0 1 792.768 1024z" fill="#246EFF" p-id="1976"></path><path d="M737.664 205.12H563.264a37.952 37.952 0 1 1 0-75.84h174.4a37.952 37.952 0 0 1 0 75.84M737.664 349.248H419.2a37.952 37.952 0 1 1 0-75.84h318.528a37.952 37.952 0 0 1 0 75.84M200 758.912c-58.24 0-101.632 33.088-107.968 84.352-8.128 66.176 28.352 95.68 38.848 97.728 23.808 1.088 253.12-0.64 351.04-1.28l58.24-0.448c9.92-3.648 57.984-33.792 55.68-99.328-1.728-51.648-56.64-83.136-80.128-94.272a71.68 71.68 0 0 1-34.688-35.008c-45.888-101.12-135.04-92.928-138.88-92.544l-4.352 0.256c-55.68 0-86.656 38.784-102.016 67.84 47.168 10.24 126.528 52.48 141.12 154.944a37.952 37.952 0 0 1-75.072 10.752 106.112 106.112 0 0 0-85.312-92.16 161.792 161.792 0 0 0-16.512-0.832z m-17.536 258.24c-28.928 0-48.768-0.128-55.872-0.512-24.64-1.152-51.84-16.512-72.576-41.152-17.792-21.12-46.336-67.584-37.248-141.44 9.216-75.136 62.72-129.6 135.872-145.92 5.44-16.064 18.112-47.36 42.496-77.056 36.48-44.288 85.056-67.968 140.672-68.48a207.488 207.488 0 0 1 80.96 10.624c40.704 13.696 96.64 46.4 132.608 124.48 36.736 17.6 119.104 67.328 122.304 159.68a184.64 184.64 0 0 1-51.328 136c-19.456 20.224-50.176 41.792-77.888 41.792l-60.032 0.384c-119.04 0.832-233.6 1.6-299.968 1.6z" fill="#246EFF" p-id="1977"></path></svg>