<?xml version="1.0" standalone="no"?><!DOCTYPE svg PUBLIC "-//W3C//DTD SVG 1.1//EN" "http://www.w3.org/Graphics/SVG/1.1/DTD/svg11.dtd"><svg t="1628498217112" class="icon" viewBox="0 0 1024 1024" version="1.1" xmlns="http://www.w3.org/2000/svg" p-id="1829" xmlns:xlink="http://www.w3.org/1999/xlink" width="200" height="200"><defs><style type="text/css"></style></defs><path d="M779.39328 192.896c-12.416 3.712-25.344 19.2-27.712 27.392a49.984 49.984 0 0 1-21.12 28.48 50.56 50.56 0 0 1-44.288 73.856 50.304 50.304 0 0 1-27.072-92.864 50.496 50.496 0 0 1-3.84-37.312c10.368-36.352 40.704-70.784 75.904-88.32a264.384 264.384 0 0 0-12.544-13.824 33.28 33.28 0 0 0-1.472 2.816 50.112 50.112 0 0 1-92.416-39.232c1.28-3.2 4.864-11.2 11.2-20.864A261.568 261.568 0 0 0 530.30528 10.752c-145.856 0-264.512 119.424-264.512 266.176 0 146.752 118.656 266.176 264.512 266.176 145.92 0 264.576-119.424 264.576-266.24 0-29.504-4.928-57.92-13.76-84.48l-1.728 0.512" fill="#246EFF" p-id="1830"></path><path d="M680.32128 292.608a21.312 21.312 0 0 1 11.712-40.832 21.248 21.248 0 0 1-11.712 40.832" fill="#246EFF" p-id="1831"></path><path d="M771.20128 164.928c-22.144 6.528-42.368 29.76-47.36 47.36a21.12 21.12 0 1 1-40.64-11.776c9.6-33.536 42.24-66.368 76.032-76.416 15.552-4.608 25.152-14.336 26.432-26.88 1.472-14.4-8.768-29.44-26.752-39.104-14.976-8.064-28.16-10.24-39.296-6.272-19.072 6.72-28.8 29.184-28.864 29.44a21.12 21.12 0 1 1-39.04-16.32C653.24928 60.928 668.86528 24.96 705.08928 11.84 727.93728 3.584 752.76928 6.592 778.88128 20.544c33.408 18.048 52.16 49.088 48.832 81.088-3.008 29.568-24.64 53.824-56.512 63.36" fill="#246EFF" p-id="1832"></path><path d="M946.94528 882.944c-10.24-129.152-73.152-273.728-211.52-345.408a27.072 27.072 0 0 0-27.776 1.536c-50.56 34.752-111.616 55.04-177.28 55.04A311.872 311.872 0 0 1 359.04128 543.168a27.136 27.136 0 0 0-28.288-0.768C205.69728 613.056 139.32928 748.352 128.19328 882.816c-1.152 13.44 1.92 39.104 34.944 59.584 77.312 48 297.856 52.096 370.688 52.096h4.288c67.84-0.128 295.296-4.48 374.08-52.928 32.704-20.16 35.84-45.44 34.752-58.624" fill="#246EFF" p-id="1833"></path></svg>