<?xml version="1.0" standalone="no"?><!DOCTYPE svg PUBLIC "-//W3C//DTD SVG 1.1//EN" "http://www.w3.org/Graphics/SVG/1.1/DTD/svg11.dtd"><svg t="1628498233639" class="icon" viewBox="0 0 1024 1024" version="1.1" xmlns="http://www.w3.org/2000/svg" p-id="2704" xmlns:xlink="http://www.w3.org/1999/xlink" width="200" height="200"><defs><style type="text/css"></style></defs><path d="M510.08012 0.063996C228.817699 0.063996 0.031998 228.849697 0.031998 510.112118s228.785701 510.048122 510.048122 510.048122c17.726892 0 41.213424 0.767952 68.411724 1.535904 41.341416 1.27992 80.95494 2.23986 117.624649 2.23986 81.27492 0 148.086745-4.7997 187.316292-22.206612 44.925192-20.030748 41.085432-72.443472 38.013625-114.552841-2.23986-30.3981-4.735704-64.763952 6.783576-85.242672 45.43716-80.762952 91.962252-178.548841 91.962252-291.821761C1020.128242 228.849697 791.342541 0.063996 510.08012 0.063996z m147.894757 511.968002a64.507968 64.507968 0 1 1 128.95194 0 64.443972 64.443972 0 0 1-128.95194 0zM445.636148 512.031998a64.507968 64.507968 0 0 1 128.95194 0 64.443972 64.443972 0 1 1-128.95194 0zM233.233423 512.031998A64.507968 64.507968 0 1 1 362.249359 512.031998a64.443972 64.443972 0 0 1-128.95194 0z" fill="#FFBC4B" p-id="2705"></path></svg>