<?xml version="1.0" standalone="no"?><!DOCTYPE svg PUBLIC "-//W3C//DTD SVG 1.1//EN" "http://www.w3.org/Graphics/SVG/1.1/DTD/svg11.dtd"><svg t="1628498230893" class="icon" viewBox="0 0 1024 1024" version="1.1" xmlns="http://www.w3.org/2000/svg" p-id="2557" xmlns:xlink="http://www.w3.org/1999/xlink" width="200" height="200"><defs><style type="text/css"></style></defs><path d="M111.385539 310.381493l396.902698 232.049207 396.774705-232.049207-396.774705-232.049207L111.385539 310.445489z m396.902698 310.316218a52.348663 52.348663 0 0 1-26.430315-7.167544L39.710108 355.050646a51.900691 51.900691 0 0 1-25.598368-44.669153c0-18.302833 9.791376-35.45374 25.598368-44.669152L481.857922 7.168823a52.412659 52.412659 0 0 1 52.796634 0l442.083817 258.543518a51.900691 51.900691 0 0 1 0 89.338305l-442.083817 258.543517a52.220671 52.220671 0 0 1-26.366319 7.103548z" fill="#5258DD" p-id="2558"></path><path d="M508.288237 822.540843a52.284667 52.284667 0 0 1-26.430315-7.231539L18.527459 544.414574A37.373617 37.373617 0 0 1 56.349048 479.906686l452.003185 264.303151 452.003184-264.303151a37.373617 37.373617 0 1 1 37.693597 64.507888l-463.330462 270.89473a52.156675 52.156675 0 0 1-26.366319 7.167543" fill="#5258DD" p-id="2559"></path><path d="M508.288237 1009.40893a52.284667 52.284667 0 0 1-26.430315-7.231539L18.527459 731.282661A37.373617 37.373617 0 0 1 56.349048 666.774773l452.003185 264.303151 452.003184-264.303151a37.373617 37.373617 0 1 1 37.693597 64.507888l-463.330462 270.89473a52.156675 52.156675 0 0 1-26.366319 7.167543" fill="#5258DD" p-id="2560"></path></svg>