<?xml version="1.0" standalone="no"?><!DOCTYPE svg PUBLIC "-//W3C//DTD SVG 1.1//EN" "http://www.w3.org/Graphics/SVG/1.1/DTD/svg11.dtd"><svg t="1628498222589" class="icon" viewBox="0 0 1024 1024" version="1.1" xmlns="http://www.w3.org/2000/svg" p-id="2121" xmlns:xlink="http://www.w3.org/1999/xlink" width="200" height="200"><defs><style type="text/css"></style></defs><path d="M178.688 180.288c-59.904 0-108.608 48.704-108.608 108.608v493.056c0 59.904 48.704 108.608 108.608 108.608H837.76c59.84 0 108.544-48.704 108.544-108.608V288.896c0-59.904-48.704-108.608-108.544-108.608H178.56zM837.76 960.64H178.56a178.88 178.88 0 0 1-178.56-178.688V288.896A178.88 178.88 0 0 1 178.56 110.208h659.2a178.88 178.88 0 0 1 178.624 178.688v493.056a178.88 178.88 0 0 1-178.624 178.688z" fill="#FF8A72" p-id="2122"></path><path d="M267.2 282.24h-7.68a37.632 37.632 0 0 1-37.696-37.632V37.632c0-20.8 16.896-37.632 37.632-37.632h7.744c20.8 0 37.632 16.832 37.632 37.632v206.976a37.632 37.632 0 0 1-37.632 37.632M756.992 282.24h-7.68a37.632 37.632 0 0 1-37.696-37.632V37.632c0-20.8 16.832-37.632 37.632-37.632h7.744c20.8 0 37.632 16.832 37.632 37.632v206.976a37.632 37.632 0 0 1-37.632 37.632M769.472 481.472H247.04a37.632 37.632 0 0 1-37.632-37.632v-7.68c0-20.864 16.832-37.696 37.632-37.696h522.432c20.736 0 37.632 16.832 37.632 37.632v7.68a37.632 37.632 0 0 1-37.632 37.76M520.384 655.808H247.04a37.632 37.632 0 0 1-37.632-37.632v-7.68c0-20.864 16.832-37.696 37.632-37.696H520.32c20.8 0 37.632 16.832 37.632 37.632v7.68a37.632 37.632 0 0 1-37.632 37.76" fill="#FF8A72" p-id="2123"></path></svg>