<?xml version="1.0" standalone="no"?><!DOCTYPE svg PUBLIC "-//W3C//DTD SVG 1.1//EN" "http://www.w3.org/Graphics/SVG/1.1/DTD/svg11.dtd"><svg t="1628498225360" class="icon" viewBox="0 0 1024 1024" version="1.1" xmlns="http://www.w3.org/2000/svg" p-id="2265" xmlns:xlink="http://www.w3.org/1999/xlink" width="200" height="200"><defs><style type="text/css"></style></defs><path d="M512 75.84a212.608 212.608 0 0 0-212.416 212.416A212.608 212.608 0 0 0 512 500.608a212.608 212.608 0 0 0 212.416-212.352A212.608 212.608 0 0 0 512 75.84m0 500.608a288.576 288.576 0 0 1-288.256-288.192A288.576 288.576 0 0 1 512 0a288.576 288.576 0 0 1 288.256 288.256A288.576 288.576 0 0 1 512 576.448" fill="#DE51E0" p-id="2266"></path><path d="M275.2 701.376A199.552 199.552 0 0 0 75.776 900.736a43.52 43.52 0 0 0 43.456 43.456h785.408a43.52 43.52 0 0 0 43.456-43.456A199.552 199.552 0 0 0 748.8 701.376H275.136z m629.504 318.592H119.296A119.424 119.424 0 0 1 0 900.672C0 749.056 123.456 625.536 275.2 625.536h473.6C900.608 625.536 1024 748.992 1024 900.736a119.424 119.424 0 0 1-119.296 119.232z" fill="#DE51E0" p-id="2267"></path></svg>