<?xml version="1.0" standalone="no"?><!DOCTYPE svg PUBLIC "-//W3C//DTD SVG 1.1//EN" "http://www.w3.org/Graphics/SVG/1.1/DTD/svg11.dtd"><svg t="1628498213914" class="icon" viewBox="0 0 1024 1024" version="1.1" xmlns="http://www.w3.org/2000/svg" p-id="1685" xmlns:xlink="http://www.w3.org/1999/xlink" width="200" height="200"><defs><style type="text/css"></style></defs><path d="M503.04768 72.64a218.24 218.24 0 0 0-217.984 218.048 218.24 218.24 0 0 0 217.984 217.984 218.24 218.24 0 0 0 217.984-217.984A218.24 218.24 0 0 0 503.11168 72.64m0 508.736a291.008 291.008 0 0 1-290.688-290.688A291.008 291.008 0 0 1 503.11168 0a291.008 291.008 0 0 1 290.688 290.688 291.008 291.008 0 0 1-290.688 290.688" fill="#FFBC4B" p-id="1686"></path><path d="M59.78368 995.52a36.352 36.352 0 0 1-36.288-34.688C23.36768 957.248 20.03968 872.896 58.69568 773.12 94.59968 680.512 174.66368 556.416 352.19968 490.944a36.288 36.288 0 1 1 25.152 68.224C86.47168 666.304 95.94368 954.688 96.07168 957.568a36.352 36.352 0 0 1-36.288 37.952" fill="#FFBC4B" p-id="1687"></path><path d="M733.57568 606.08a36.096 36.096 0 0 1-19.008-5.376 481.792 481.792 0 0 0-86.08-41.536 36.352 36.352 0 1 1 25.088-68.16 553.024 553.024 0 0 1 99.072 47.808 36.352 36.352 0 0 1-19.072 67.264M822.79168 948.352a36.352 36.352 0 0 1-36.352-36.352v-232.576a36.352 36.352 0 1 1 72.704 0v232.576a36.352 36.352 0 0 1-36.352 36.352" fill="#FFBC4B" p-id="1688"></path><path d="M670.15168 795.712c0-20.032 16.32-36.352 36.352-36.352h232.576a36.352 36.352 0 1 1 0 72.704h-232.576a36.352 36.352 0 0 1-36.288-36.352" fill="#FFBC4B" p-id="1689"></path></svg>